<svg xmlns="http://www.w3.org/2000/svg" viewBox="0 0 841.89 595.28"><defs><style>.cls-1{fill:#d4af37;}</style></defs><g id="Layer_2" data-name="Layer 2"><path class="cls-1" d="M327.64,297.83q0,61.28-39.74,99.16T187.28,434.87q-60.89,0-100.23-37.88T47.7,297.83q0-61.26,39.15-99.34t100.92-38.08q61.75,0,100.81,38.08T327.64,297.83ZM234.85,248.7q-17.62-19.38-47-19.38T140.69,248.8q-17.82,19.47-17.82,49.13t17.82,48.84Q158.5,366,187.77,366t47-19.38q17.72-19.38,17.72-48.94T234.85,248.7Z"/><path class="cls-1" d="M438.17,252.42l43.46-57.17q19-25,42.29-25.05t31.22,12.62q7.93,12.63,7.93,22.71T556,229.71L476.15,333.85v64.6q0,34.07-38.76,34.07H398.63V333.85L320.32,229.71q-7-14.1-7-24.18t7.93-22.71q7.92-12.62,31.22-12.62t42.28,25.05Z"/><path class="cls-1" d="M794.19,385q0,14.2-22.51,32t-83.4,17.82q-60.88,0-100.23-37.88t-39.34-99.16q0-61.26,39.15-99.34t100.91-38.08q61.77,0,83.59,17.81t21.83,32a37.87,37.87,0,0,1-9.4,25.25q-9.39,11.07-20.65,11.06t-35.63-8.61q-24.36-8.61-36.51-8.61-65.78,0-65.77,68.32T692,366q12.13,0,36.51-8.62t35.63-8.61q11.25,0,20.65,11.06A37.89,37.89,0,0,1,794.19,385Z"/></g></svg>